# xmcd
#
# Track frame offsets:
#	182
#	17840
#	32090
#	46892
#	62820
#	72737
#	88230
#	100685
#	116775
#	132857
#
# Disc length: 1928 seconds
#
# Revision: 0
# Processed by: cddbd v1.4PL0 Copyright (c) Steve Scherf et al.
# Submitted via: audiograbber 1.82.01
#
DISCID=8d07860a
DTITLE=Cenair Maica - Meu canto
DYEAR=1994
DGENRE=Gaucha
TTITLE0=Meu canto
TTITLE1=Joao sem terra
TTITLE2=Rio Uruguai
TTITLE3=Canto pra juventude
TTITLE4=Boa vista de Sao Domingos
TTITLE5=Bochinchando
TTITLE6=KM 11
TTITLE7=Valores
TTITLE8=Zamba para dizer adeus
TTITLE9=Milonga vanera
EXTD=
EXTT0=
EXTT1=
EXTT2=
EXTT3=
EXTT4=
EXTT5=
EXTT6=
EXTT7=
EXTT8=
EXTT9=
PLAYORDER=
